<svg xmlns="http://www.w3.org/2000/svg" viewBox="0 0 500 500"><title>azul-cielo0</title><g id="azul"><path d="M362.88,119.88h0L336.57,93.72l-3.93-3.91-1.73-1.72-56.09,55.78-48-47.7-5.66,5.63h0L98.5,223.8l2.8,2.78,2.91,2.9,74.55,74.12h0c51.43,50.6,134,50.81,184.78.33S414.1,171,362.88,119.88Zm-56.56,66.56-.12.12.06.05a49.64,49.64,0,0,1,0,70.48c-22.61,22.47-57.35,13.41-70.89,0l-.09-.09-31.47-31.28,71-70.6Zm50.76,110.8c-47.71,47.44-125.11,47.44-173.16.11h0l-74-73.56,117-116.31,42.25,42-71,70.6h0l-5.66,5.62h0l5.66,5.63h0l31.46,31.28.09.09c15.67,15.52,55.94,26.18,82.27,0a57.59,57.59,0,0,0,.46-81.32l.07-.06-32-31.85,50.64-50.35,26.08,25.92h0C404.8,172.84,404.8,249.8,357.08,297.24Z" fill="#4197cb"/><path d="M138.87,376.89h-12.1v34.29h12.1a20.74,20.74,0,0,0,7.37-1.2,13.3,13.3,0,0,0,5.25-3.54,14.57,14.57,0,0,0,3-5.67,27.23,27.23,0,0,0,.95-7.51c0-5.45-1.47-9.59-4.36-12.3S144.12,376.89,138.87,376.89ZM141,405.67c-.7.07-1.28.11-1.74.11h-6.37V382.29h6.46a12.58,12.58,0,0,1,4.75.78,7.36,7.36,0,0,1,3,2.2,9,9,0,0,1,1.71,3.58,20.46,20.46,0,0,1,.55,5,18,18,0,0,1-.58,4.88,11.7,11.7,0,0,1-1.47,3.29,7.38,7.38,0,0,1-1.94,2,10,10,0,0,1-2.25,1.16A9.8,9.8,0,0,1,141,405.67Z" fill="#4197cb"/><polygon points="178.14 391.61 168.82 376.89 161.53 376.89 174.93 397.26 174.93 411.18 181.04 411.18 181.04 397.26 194.29 376.89 187.23 376.89 178.14 391.61" fill="#4197cb"/><path d="M214.3,376.89H202.2v34.29h12.1a20.74,20.74,0,0,0,7.37-1.2,13.3,13.3,0,0,0,5.25-3.54,14.57,14.57,0,0,0,3-5.67,27.23,27.23,0,0,0,1-7.51c0-5.45-1.47-9.59-4.36-12.3S219.55,376.89,214.3,376.89Zm8.23,8.38a9.18,9.18,0,0,1,1.71,3.58,21,21,0,0,1,.55,5,18,18,0,0,1-.58,4.88,11.83,11.83,0,0,1-1.47,3.29,7.38,7.38,0,0,1-1.94,2,10,10,0,0,1-2.25,1.16,9.93,9.93,0,0,1-2.14.5c-.7.07-1.28.11-1.74.11H208.3V382.29h6.46a12.58,12.58,0,0,1,4.75.78A7.36,7.36,0,0,1,222.53,385.27Z" fill="#4197cb"/><polygon points="247.3 396.28 264.3 396.28 264.3 390.88 247.3 390.88 247.3 382.29 265.54 382.29 265.54 376.89 241.19 376.89 241.19 411.18 265.68 411.18 265.68 405.78 247.3 405.78 247.3 396.28" fill="#4197cb"/><polygon points="272.45 382.29 283.35 382.29 283.35 411.18 289.46 411.18 289.46 382.29 300.37 382.29 300.37 376.89 272.45 376.89 272.45 382.29" fill="#4197cb"/><polygon points="315.08 396.28 332.08 396.28 332.08 390.88 315.08 390.88 315.08 382.29 333.32 382.29 333.32 376.89 308.97 376.89 308.97 411.18 333.45 411.18 333.45 405.78 315.08 405.78 315.08 396.28" fill="#4197cb"/><path d="M367.09,397.16,367,398a11.54,11.54,0,0,1-.76,3.48,8.06,8.06,0,0,1-1.72,2.69,7.72,7.72,0,0,1-2.6,1.76,8.78,8.78,0,0,1-3.48.64,10,10,0,0,1-4.64-1,9.16,9.16,0,0,1-3.16-2.68,11.85,11.85,0,0,1-1.85-4,20.53,20.53,0,0,1-.61-5,17.82,17.82,0,0,1,.61-4.7,11.92,11.92,0,0,1,1.85-3.92,9.06,9.06,0,0,1,3.14-2.68,9.87,9.87,0,0,1,4.61-1,9.32,9.32,0,0,1,5.44,1.57,7.16,7.16,0,0,1,2.87,4.66l.15.69H373l-.14-1a13.05,13.05,0,0,0-1.68-4.91,12.32,12.32,0,0,0-3.21-3.56,14.3,14.3,0,0,0-4.34-2.14,18.24,18.24,0,0,0-5.11-.72,16.64,16.64,0,0,0-7,1.43,14.79,14.79,0,0,0-5.16,3.9,17,17,0,0,0-3.12,5.74,22.76,22.76,0,0,0-1,6.94,23.75,23.75,0,0,0,1,6.91,16.3,16.3,0,0,0,3,5.68,14,14,0,0,0,5,3.82,16.86,16.86,0,0,0,7,1.38c4.4,0,7.93-1.23,10.5-3.66s4.08-5.82,4.53-10.12l.1-1Z" fill="#4197cb"/><path d="M396.65,371a8,8,0,1,1-8-7.81A7.84,7.84,0,0,1,396.65,371Zm-14,0a6,6,0,0,0,6.09,6.23,6,6,0,0,0,5.95-6.18,6,6,0,1,0-12-.05Zm4.81,4.09h-1.81v-7.8a15.23,15.23,0,0,1,3-.24,4.87,4.87,0,0,1,2.71.57,2.15,2.15,0,0,1,.76,1.71,2,2,0,0,1-1.61,1.81v.1a2.28,2.28,0,0,1,1.42,1.9,6.07,6.07,0,0,0,.57,1.95h-1.95a6.74,6.74,0,0,1-.62-1.9c-.14-.86-.61-1.24-1.61-1.24h-.86Zm.05-4.43h.85c1,0,1.81-.33,1.81-1.14s-.52-1.19-1.66-1.19a4.11,4.11,0,0,0-1,.1Z" fill="#4197cb"/></g></svg>