<svg xmlns="http://www.w3.org/2000/svg" viewBox="0 0 500 500"><title>gris0</title><g id="gris_azulado" data-name="gris azulado"><path d="M368.88,113.88h0L342.57,87.72l-3.93-3.91-1.73-1.72-56.09,55.78-48-47.69-5.66,5.62h0l-122.7,122,2.8,2.78,2.91,2.9,74.54,74.11h0c51.43,50.6,134,50.81,184.78.33S420.1,165,368.88,113.88Zm-56.56,66.56-.12.12.05.05a49.63,49.63,0,0,1,0,70.48c-22.6,22.48-57.34,13.41-70.89,0l-.08-.08-31.47-31.29,71-70.6Zm50.76,110.8c-47.71,47.44-125.11,47.44-173.16.11h0l-74-73.56,117-116.31,42.25,42-71,70.6h0l-5.66,5.62h0l5.66,5.62h0l31.47,31.28.09.1c15.67,15.51,55.94,26.17,82.27,0a57.6,57.6,0,0,0,.46-81.33l.07-.06-32-31.85,50.64-50.35,26.08,25.93h0C410.8,166.84,410.79,243.8,363.08,291.24Z" fill="#606060"/><path d="M144.87,370.89h-12.1v34.29h12.1a20.52,20.52,0,0,0,7.37-1.2,13.37,13.37,0,0,0,5.25-3.54,14.43,14.43,0,0,0,3-5.67,27.16,27.16,0,0,0,1-7.51c0-5.45-1.47-9.59-4.36-12.3S150.12,370.89,144.87,370.89ZM147,399.67c-.7.07-1.28.11-1.74.11h-6.37V376.29h6.46a12.58,12.58,0,0,1,4.75.78,7.36,7.36,0,0,1,3,2.2,9,9,0,0,1,1.71,3.58,21,21,0,0,1,.55,5,17.5,17.5,0,0,1-.59,4.88,11.42,11.42,0,0,1-1.46,3.29,7.57,7.57,0,0,1-1.94,2,10.2,10.2,0,0,1-2.25,1.15A9.93,9.93,0,0,1,147,399.67Z" fill="#606060"/><polygon points="184.13 385.61 174.82 370.89 167.53 370.89 180.93 391.26 180.93 405.18 187.04 405.18 187.04 391.26 200.29 370.89 193.23 370.89 184.13 385.61" fill="#606060"/><path d="M220.3,370.89H208.19v34.29H220.3a20.55,20.55,0,0,0,7.37-1.2,13.26,13.26,0,0,0,5.24-3.54,14.32,14.32,0,0,0,3-5.67,27.22,27.22,0,0,0,1-7.51c0-5.45-1.47-9.59-4.36-12.3S225.55,370.89,220.3,370.89Zm8.23,8.38a9.18,9.18,0,0,1,1.71,3.58,21,21,0,0,1,.55,5,17.5,17.5,0,0,1-.59,4.88,11.55,11.55,0,0,1-1.46,3.29,7.57,7.57,0,0,1-1.94,2,10.2,10.2,0,0,1-2.25,1.15,9.93,9.93,0,0,1-2.14.5c-.7.07-1.28.11-1.74.11H214.3V376.29h6.46a12.58,12.58,0,0,1,4.75.78A7.36,7.36,0,0,1,228.53,379.27Z" fill="#606060"/><polygon points="253.3 390.28 270.3 390.28 270.3 384.88 253.3 384.88 253.3 376.29 271.54 376.29 271.54 370.89 247.19 370.89 247.19 405.18 271.68 405.18 271.68 399.78 253.3 399.78 253.3 390.28" fill="#606060"/><polygon points="278.44 376.29 289.35 376.29 289.35 405.18 295.46 405.18 295.46 376.29 306.37 376.29 306.37 370.89 278.44 370.89 278.44 376.29" fill="#606060"/><polygon points="321.08 390.28 338.08 390.28 338.08 384.88 321.08 384.88 321.08 376.29 339.31 376.29 339.31 370.89 314.97 370.89 314.97 405.18 339.45 405.18 339.45 399.78 321.08 399.78 321.08 390.28" fill="#606060"/><path d="M373.09,391.17,373,392a11.54,11.54,0,0,1-.76,3.48,8.22,8.22,0,0,1-1.72,2.69,7.89,7.89,0,0,1-2.6,1.77,9,9,0,0,1-3.48.63,10,10,0,0,1-4.64-1,9.16,9.16,0,0,1-3.16-2.68,11.85,11.85,0,0,1-1.85-4,20.06,20.06,0,0,1-.61-5,17.69,17.69,0,0,1,.61-4.69,12,12,0,0,1,1.85-3.93,9.06,9.06,0,0,1,3.14-2.68,9.87,9.87,0,0,1,4.61-1,9.4,9.4,0,0,1,5.44,1.57,7.2,7.2,0,0,1,2.87,4.66l.14.69H379l-.14-1a13.05,13.05,0,0,0-1.68-4.91,12.16,12.16,0,0,0-3.21-3.55,13.81,13.81,0,0,0-4.35-2.14,17.76,17.76,0,0,0-5.1-.72,16.79,16.79,0,0,0-7,1.42,14.79,14.79,0,0,0-5.16,3.9,16.87,16.87,0,0,0-3.12,5.74,22.46,22.46,0,0,0-1,6.94,23.75,23.75,0,0,0,1,6.91,16.13,16.13,0,0,0,3,5.68,13.93,13.93,0,0,0,5,3.82,16.86,16.86,0,0,0,7,1.38c4.4,0,7.93-1.23,10.5-3.66s4.08-5.82,4.53-10.12l.1-1Z" fill="#606060"/><path d="M402.65,365a8,8,0,1,1-8-7.81A7.84,7.84,0,0,1,402.65,365Zm-14,0a6,6,0,0,0,6.09,6.23,6,6,0,0,0,5.95-6.18,6,6,0,1,0-12-.05Zm4.81,4.09h-1.81v-7.8a15.15,15.15,0,0,1,3-.24,4.89,4.89,0,0,1,2.71.57,2.15,2.15,0,0,1,.76,1.71,2,2,0,0,1-1.62,1.81v.1a2.28,2.28,0,0,1,1.43,1.9,6,6,0,0,0,.57,1.95h-1.95a6.62,6.62,0,0,1-.62-1.9c-.14-.86-.62-1.24-1.61-1.24h-.86Zm.05-4.42h.85c1,0,1.81-.34,1.81-1.15s-.52-1.19-1.66-1.19a4.11,4.11,0,0,0-1,.1Z" fill="#606060"/></g></svg>