<svg xmlns="http://www.w3.org/2000/svg" viewBox="0 0 500 500"><title>icon-azul-cielo0</title><g id="Capa_5" data-name="Capa 5"><path d="M382.7,132.09h0L350,99.62l-4.87-4.85L343,92.63,273.4,161.86l-59.53-59.19-7,7h0L54.56,261.07,58,264.52l3.62,3.6,92.52,92h0c63.84,62.81,166.33,63.07,229.34.41S446.27,195.53,382.7,132.09ZM312.5,214.7l-.15.14.06.07a61.6,61.6,0,0,1,0,87.48c-28.05,27.89-71.17,16.64-88,0l-.11-.11-39-38.83,88.13-87.62Zm63,137.51c-59.22,58.88-155.29,58.89-214.92.14v0l-91.83-91.3,145.2-144.36,52.43,52.13-88.13,87.63h0l-7,7h0l7,7h0l39.06,38.84.11.11c19.45,19.26,69.43,32.49,102.11,0a71.49,71.49,0,0,0,.58-100.94l.07-.08-39.75-39.52,62.86-62.5,32.36,32.18h0C434.72,197.82,434.72,293.33,375.5,352.21Z" fill="#4197cb"/><path d="M445.44,375.7a16.71,16.71,0,1,1-16.65-16.26A16.34,16.34,0,0,1,445.44,375.7Zm-29.24,0c0,7.24,5.35,13,12.69,13,7.13,0,12.39-5.75,12.39-12.89s-5.26-13.08-12.49-13.08S416.2,368.57,416.2,375.7Zm10,8.53h-3.77V368a32.84,32.84,0,0,1,6.25-.49c3.07,0,4.46.49,5.65,1.19a4.5,4.5,0,0,1,1.59,3.56c0,1.79-1.39,3.18-3.37,3.77v.2c1.58.59,2.47,1.78,3,4,.49,2.48.79,3.47,1.19,4.07h-4.07c-.49-.6-.79-2.08-1.28-4-.3-1.78-1.29-2.58-3.37-2.58h-1.79Zm.1-9.22h1.78c2.09,0,3.77-.69,3.77-2.38,0-1.49-1.09-2.48-3.47-2.48a9,9,0,0,0-2.08.2Z" fill="#4197cb"/></g></svg>